<svg xmlns="http://www.w3.org/2000/svg" width="920" height="420" viewBox="0 0 920 420" role="img" aria-labelledby="ncf-t ncf-d">
  <title id="ncf-t">smart-speaker-client</title>
  <desc id="ncf-d">CLIENT panel from architecture overview, enlarged</desc>
  <defs>
    <linearGradient id="ncf-sky" x1="0" y1="0" x2="0" y2="1">
      <stop offset="0%" stop-color="#0f0520"/>
      <stop offset="100%" stop-color="#1a0a2e"/>
    </linearGradient>
    <filter id="ncf-g2" x="-50%" y="-50%" width="200%" height="200%">
      <feGaussianBlur stdDeviation="8" result="b2"/>
      <feMerge><feMergeNode in="b2"/><feMergeNode in="SourceGraphic"/></feMerge>
    </filter>
    <linearGradient id="ncf-cab" x1="0%" y1="0%" x2="100%" y2="0%">
      <stop offset="0%" stop-color="rgba(34,211,238,0.14)"/>
      <stop offset="50%" stop-color="rgba(34,211,238,0.05)"/>
      <stop offset="100%" stop-color="rgba(34,211,238,0.12)"/>
    </linearGradient>
  </defs>
  <rect width="920" height="420" fill="url(#ncf-sky)"/>
  <g stroke="#22d3ee" stroke-width="1" opacity="0.12">
    <line x1="0" y1="80" x2="920" y2="80"/><line x1="0" y1="160" x2="920" y2="160"/>
    <line x1="0" y1="240" x2="920" y2="240"/><line x1="0" y1="320" x2="920" y2="320"/>
  </g>
  <g transform="translate(460, 210) scale(2.02) translate(-100, -94)" filter="url(#ncf-g2)">
    <rect width="200" height="188" rx="10" fill="none" stroke="#22d3ee" stroke-width="2"/>
    <rect x="22" y="10" width="156" height="132" rx="14" fill="url(#ncf-cab)" stroke="#22d3ee" stroke-width="1.6"/>
    <rect x="32" y="20" width="136" height="102" rx="8" fill="none" stroke="#67e8f9" stroke-width="1" opacity="0.6"/>
    <circle cx="100" cy="40" r="9" fill="none" stroke="#a5f3fc" stroke-width="1.2"/>
    <circle cx="100" cy="40" r="3.5" fill="rgba(103,232,249,0.22)" stroke="#67e8f9" stroke-width="0.8"/>
    <circle cx="100" cy="84" r="24" fill="rgba(34,211,238,0.06)" stroke="#22d3ee" stroke-width="1.5"/>
    <circle cx="100" cy="84" r="17" fill="none" stroke="#22d3ee" stroke-width="1" opacity="0.72"/>
    <circle cx="100" cy="84" r="10" fill="none" stroke="#67e8f9" stroke-width="0.85" opacity="0.55"/>
    <path d="M92 82h16M100 76v12" stroke="#22d3ee" stroke-width="0.65" opacity="0.32"/>
    <rect x="74" y="110" width="52" height="8" rx="4" fill="none" stroke="#22d3ee" stroke-width="0.9" opacity="0.5"/>
    <line x1="82" y1="114" x2="118" y2="114" stroke="#22d3ee" stroke-width="1.4" stroke-linecap="round" opacity="0.32"/>
    <rect x="86" y="128" width="28" height="4" rx="2" fill="#22d3ee" opacity="0.32"/>
    <text x="100" y="178" text-anchor="middle" fill="#67e8f9" font-family="monospace" font-size="28" font-weight="600">CLIENT</text>
  </g>
</svg>
