<svg xmlns="http://www.w3.org/2000/svg" width="920" height="420" viewBox="0 0 920 420" role="img" aria-labelledby="nqf-t nqf-d">
  <title id="nqf-t">smart-speaker-qtApp</title>
  <desc id="nqf-d">QTAPP panel from architecture overview, enlarged</desc>
  <defs>
    <linearGradient id="nqf-sky" x1="0" y1="0" x2="0" y2="1">
      <stop offset="0%" stop-color="#0f0520"/>
      <stop offset="100%" stop-color="#1a0a2e"/>
    </linearGradient>
    <filter id="nqf-g2" x="-50%" y="-50%" width="200%" height="200%">
      <feGaussianBlur stdDeviation="8" result="b2"/>
      <feMerge><feMergeNode in="b2"/><feMergeNode in="SourceGraphic"/></feMerge>
    </filter>
  </defs>
  <rect width="920" height="420" fill="url(#nqf-sky)"/>
  <g stroke="#22d3ee" stroke-width="1" opacity="0.12">
    <line x1="0" y1="80" x2="920" y2="80"/><line x1="0" y1="160" x2="920" y2="160"/>
    <line x1="0" y1="240" x2="920" y2="240"/><line x1="0" y1="320" x2="920" y2="320"/>
  </g>
  <g transform="translate(460, 210) scale(2.02) translate(-100, -94)" filter="url(#nqf-g2)">
    <rect width="200" height="188" rx="16" fill="none" stroke="#a78bfa" stroke-width="2"/>
    <rect x="44" y="28" width="112" height="72" rx="4" fill="rgba(196,181,253,0.08)" stroke="#c4b5fd" stroke-width="1.4"/>
    <rect x="52" y="36" width="96" height="56" rx="2" fill="none" stroke="#7c3aed" stroke-width="1" opacity="0.85"/>
    <g stroke="#a78bfa" stroke-width="0.6" opacity="0.35">
      <line x1="56" y1="44" x2="144" y2="44"/><line x1="56" y1="52" x2="144" y2="52"/><line x1="56" y1="60" x2="144" y2="60"/>
      <line x1="56" y1="68" x2="144" y2="68"/><line x1="56" y1="76" x2="144" y2="76"/><line x1="56" y1="84" x2="144" y2="84"/>
    </g>
    <text x="100" y="178" text-anchor="middle" fill="#c4b5fd" font-family="monospace" font-size="28" font-weight="600">QTAPP</text>
  </g>
</svg>
