<svg xmlns="http://www.w3.org/2000/svg" width="920" height="420" viewBox="0 0 920 420" role="img" aria-labelledby="nsf-t nsf-d">
  <title id="nsf-t">smart-speaker-server</title>
  <desc id="nsf-d">SERVER panel from architecture overview, enlarged</desc>
  <defs>
    <linearGradient id="nsf-sky" x1="0" y1="0" x2="0" y2="1">
      <stop offset="0%" stop-color="#0f0520"/>
      <stop offset="100%" stop-color="#1a0a2e"/>
    </linearGradient>
    <filter id="nsf-g2" x="-50%" y="-50%" width="200%" height="200%">
      <feGaussianBlur stdDeviation="8" result="b2"/>
      <feMerge><feMergeNode in="b2"/><feMergeNode in="SourceGraphic"/></feMerge>
    </filter>
  </defs>
  <rect width="920" height="420" fill="url(#nsf-sky)"/>
  <g stroke="#22d3ee" stroke-width="1" opacity="0.12">
    <line x1="0" y1="80" x2="920" y2="80"/><line x1="0" y1="160" x2="920" y2="160"/>
    <line x1="0" y1="240" x2="920" y2="240"/><line x1="0" y1="320" x2="920" y2="320"/>
  </g>
  <g transform="translate(460, 210) scale(2.02) translate(-100, -94)" filter="url(#nsf-g2)">
    <rect width="200" height="188" rx="10" fill="none" stroke="#f472b6" stroke-width="2" opacity="0.55"/>
    <path d="M 28 124
      C 18 124 14 108 22 96 C 14 82 28 68 48 70
      C 52 52 78 42 100 48 C 122 42 150 52 158 72
      C 182 74 192 94 184 110 C 190 126 174 138 152 136
      C 132 142 108 140 88 136 C 58 142 32 136 28 124 Z" fill="rgba(244,114,182,0.07)" stroke="#f472b6" stroke-width="2"/>
    <rect x="54" y="64" width="92" height="58" rx="4" fill="rgba(244,114,182,0.1)" stroke="#fbcfe8" stroke-width="1.15"/>
    <line x1="100" y1="64" x2="100" y2="122" stroke="#f472b6" stroke-width="0.6" opacity="0.45"/>
    <rect x="62" y="70" width="68" height="8" rx="1.5" fill="#f472b6" opacity="0.28"/>
    <rect x="62" y="81" width="68" height="8" rx="1.5" fill="#f472b6" opacity="0.34"/>
    <rect x="62" y="92" width="68" height="8" rx="1.5" fill="#f472b6" opacity="0.4"/>
    <rect x="62" y="103" width="68" height="8" rx="1.5" fill="#f472b6" opacity="0.46"/>
    <circle cx="68" cy="74" r="2" fill="#34d399"/><circle cx="68" cy="85" r="2" fill="#34d399"/>
    <circle cx="68" cy="96" r="2" fill="#fbbf24"/><circle cx="68" cy="107" r="2" fill="#34d399"/>
    <g fill="#fbcfe8" opacity="0.55">
      <rect x="124" y="72" width="3" height="3" rx="0.5"/><rect x="130" y="72" width="3" height="3" rx="0.5"/><rect x="136" y="72" width="3" height="3" rx="0.5"/>
      <rect x="124" y="83" width="3" height="3" rx="0.5"/><rect x="130" y="83" width="3" height="3" rx="0.5"/><rect x="136" y="83" width="3" height="3" rx="0.5"/>
    </g>
    <rect x="38" y="78" width="12" height="36" rx="2" fill="none" stroke="#f9a8d4" stroke-width="0.9" opacity="0.65"/>
    <line x1="41" y1="86" x2="47" y2="86" stroke="#f472b6" stroke-width="1"/><line x1="41" y1="94" x2="47" y2="94" stroke="#f472b6" stroke-width="1"/>
    <line x1="41" y1="102" x2="47" y2="102" stroke="#f472b6" stroke-width="1"/>
    <ellipse cx="44" cy="74" rx="5" ry="2.5" fill="none" stroke="#fbcfe8" stroke-width="0.7" opacity="0.6"/>
    <text x="100" y="178" text-anchor="middle" fill="#f9a8d4" font-family="monospace" font-size="28" font-weight="600">SERVER</text>
  </g>
</svg>
