<svg xmlns="http://www.w3.org/2000/svg" width="920" height="440" viewBox="0 0 920 440" role="img" aria-labelledby="nqf-t nqf-d">
  <title id="nqf-t">smart-speaker-qtApp</title>
  <desc id="nqf-d">Neon phone with QT on screen</desc>
  <defs>
    <linearGradient id="nqf-sky" x1="0" y1="0" x2="0" y2="1">
      <stop offset="0%" stop-color="#0f0520"/>
      <stop offset="100%" stop-color="#1a0a2e"/>
    </linearGradient>
    <linearGradient id="nqf-glass" x1="0%" y1="0%" x2="0%" y2="100%">
      <stop offset="0%" stop-color="rgba(167,139,250,0.35)"/>
      <stop offset="100%" stop-color="rgba(30,10,50,0.55)"/>
    </linearGradient>
    <filter id="nqf-g2" x="-50%" y="-50%" width="200%" height="200%">
      <feGaussianBlur stdDeviation="12" result="b2"/>
      <feMerge><feMergeNode in="b2"/><feMergeNode in="SourceGraphic"/></feMerge>
    </filter>
  </defs>
  <rect width="920" height="440" fill="url(#nqf-sky)"/>
  <g stroke="#a78bfa" stroke-width="1" opacity="0.1">
    <line x1="0" y1="110" x2="920" y2="110"/><line x1="0" y1="220" x2="920" y2="220"/><line x1="0" y1="330" x2="920" y2="330"/>
  </g>
  <g transform="translate(360,50)" filter="url(#nqf-g2)">
    <rect x="0" y="0" width="200" height="340" rx="32" fill="rgba(167,139,250,0.08)" stroke="#a78bfa" stroke-width="2.6"/>
    <rect x="8" y="18" width="184" height="300" rx="22" fill="none" stroke="#c4b5fd" stroke-width="1.3" opacity="0.7"/>
    <path d="M 70 28 Q 100 18 130 28" fill="none" stroke="#7c3aed" stroke-width="2" opacity="0.6"/>
    <rect x="24" y="44" width="152" height="248" rx="12" fill="url(#nqf-glass)" stroke="#7c3aed" stroke-width="1.4"/>
    <text x="100" y="176" text-anchor="middle" fill="#e9d5ff" font-family="ui-monospace, monospace" font-size="20" font-weight="700" letter-spacing="0.05em">QT</text>
    <g stroke="#c4b5fd" stroke-width="0.5" opacity="0.25">
      <line x1="36" y1="72" x2="164" y2="72"/><line x1="36" y1="88" x2="164" y2="88"/>
    </g>
    <rect x="76" y="302" width="48" height="5" rx="2.5" fill="#7c3aed" opacity="0.55"/>
    <line x1="196" y1="120" x2="200" y2="120" stroke="#a78bfa" stroke-width="3" stroke-linecap="round" opacity="0.6"/>
    <line x1="196" y1="160" x2="200" y2="160" stroke="#a78bfa" stroke-width="3" stroke-linecap="round" opacity="0.6"/>
  </g>
</svg>
