<svg xmlns="http://www.w3.org/2000/svg" width="920" height="440" viewBox="0 0 920 440" role="img" aria-labelledby="ncf-t ncf-d">
  <title id="ncf-t">smart-speaker-client module map</title>
  <desc id="ncf-d">Neon cyber client focus</desc>
  <defs>
    <linearGradient id="ncf-sky" x1="0" y1="0" x2="0" y2="1">
      <stop offset="0%" stop-color="#0f0520"/>
      <stop offset="100%" stop-color="#1a0a2e"/>
    </linearGradient>
    <filter id="ncf-g1" x="-50%" y="-50%" width="200%" height="200%">
      <feGaussianBlur stdDeviation="4" result="b"/>
      <feMerge><feMergeNode in="b"/><feMergeNode in="SourceGraphic"/></feMerge>
    </filter>
    <filter id="ncf-g2" x="-50%" y="-50%" width="200%" height="200%">
      <feGaussianBlur stdDeviation="7" result="b2"/>
      <feMerge><feMergeNode in="b2"/><feMergeNode in="SourceGraphic"/></feMerge>
    </filter>
  </defs>
  <rect width="920" height="440" fill="url(#ncf-sky)"/>
  <g stroke="#22d3ee" stroke-width="1" opacity="0.12">
    <line x1="0" y1="100" x2="920" y2="100"/><line x1="0" y1="200" x2="920" y2="200"/>
    <line x1="0" y1="300" x2="920" y2="300"/>
  </g>
  <text x="460" y="42" text-anchor="middle" fill="#67e8f9" font-family="ui-monospace, monospace" font-size="15" filter="url(#ncf-g1)">smart-speaker-client</text>
  <g transform="translate(48,72)" filter="url(#ncf-g2)">
    <rect width="420" height="300" rx="12" fill="rgba(34,211,238,0.04)" stroke="#22d3ee" stroke-width="2.5"/>
    <text x="210" y="36" text-anchor="middle" fill="#67e8f9" font-family="monospace" font-size="13">EMBEDDED CLIENT</text>
    <line x1="40" y1="58" x2="380" y2="58" stroke="#22d3ee" stroke-width="1" opacity="0.35"/>
    <text x="50" y="92" fill="#a5f3fc" font-family="monospace" font-size="11">player / GStreamer</text>
    <text x="50" y="118" fill="#a5f3fc" font-family="monospace" font-size="11">music_source: local + server</text>
    <text x="50" y="154" fill="#a5f3fc" font-family="monospace" font-size="11">voice-assistant: ASR KWS TTS LLM</text>
    <text x="50" y="180" fill="#a5f3fc" font-family="monospace" font-size="11">supervisor + ipc</text>
    <circle cx="210" cy="248" r="40" fill="none" stroke="#22d3ee" stroke-width="1.5"/>
    <text x="210" y="254" text-anchor="middle" fill="#22d3ee" font-family="monospace" font-size="10">OrangePi</text>
  </g>
  <g transform="translate(500,100)" filter="url(#ncf-g2)">
    <rect width="200" height="220" rx="8" fill="none" stroke="#f472b6" stroke-width="2"/>
    <line x1="24" y1="48" x2="176" y2="48" stroke="#f472b6" stroke-width="1.1"/>
    <line x1="24" y1="78" x2="176" y2="78" stroke="#f472b6" stroke-width="1.1"/>
    <text x="100" y="200" text-anchor="middle" fill="#f9a8d4" font-family="monospace" font-size="11">SERVER</text>
    <text x="100" y="218" text-anchor="middle" fill="#f472b6" font-family="monospace" font-size="9">TCP + library</text>
  </g>
  <g transform="translate(718,148)" filter="url(#ncf-g2)">
    <rect width="154" height="124" rx="14" fill="none" stroke="#a78bfa" stroke-width="2"/>
    <text x="77" y="108" text-anchor="middle" fill="#c4b5fd" font-family="monospace" font-size="10">QT APP</text>
  </g>
  <g stroke="#22d3ee" stroke-width="2.2" fill="none" filter="url(#ncf-g1)">
    <path d="M468 222 H500"/>
  </g>
  <g stroke="#a78bfa" stroke-width="1.8" fill="none" opacity="0.9" filter="url(#ncf-g1)">
    <path d="M718 210 H700 Q 640 210 600 222"/>
  </g>
  <path d="M795 148 C 840 80 880 40 400 40 C 120 40 80 120 210 72" fill="none" stroke="#f472b6" stroke-width="1.3" stroke-dasharray="9 6" opacity="0.75" filter="url(#ncf-g1)"/>
  <text x="460" y="418" text-anchor="middle" fill="#6b21a8" font-family="monospace" font-size="10">neon / client focus</text>
</svg>
