<svg xmlns="http://www.w3.org/2000/svg" width="920" height="440" viewBox="0 0 920 440" role="img" aria-labelledby="nsf-t nsf-d">
  <title id="nsf-t">smart-speaker-server</title>
  <desc id="nsf-d">Neon cloud and blade stack</desc>
  <defs>
    <linearGradient id="nsf-sky" x1="0" y1="0" x2="0" y2="1">
      <stop offset="0%" stop-color="#0f0520"/>
      <stop offset="100%" stop-color="#1a0a2e"/>
    </linearGradient>
    <radialGradient id="nsf-cloudFill" cx="50%" cy="45%" r="55%">
      <stop offset="0%" stop-color="rgba(244,114,182,0.14)"/>
      <stop offset="70%" stop-color="rgba(244,114,182,0.04)"/>
      <stop offset="100%" stop-color="rgba(244,114,182,0)"/>
    </radialGradient>
    <linearGradient id="nsf-blade" x1="0%" y1="0%" x2="100%" y2="0%">
      <stop offset="0%" stop-color="rgba(251,207,232,0.35)"/>
      <stop offset="40%" stop-color="rgba(244,114,182,0.5)"/>
      <stop offset="100%" stop-color="rgba(190,24,93,0.35)"/>
    </linearGradient>
    <filter id="nsf-title" x="-20%" y="-20%" width="140%" height="140%">
      <feGaussianBlur stdDeviation="3" result="b"/>
      <feMerge><feMergeNode in="b"/><feMergeNode in="SourceGraphic"/></feMerge>
    </filter>
    <filter id="nsf-cloudBloom" x="-35%" y="-35%" width="170%" height="170%">
      <feGaussianBlur in="SourceGraphic" stdDeviation="5" result="blur"/>
      <feMerge><feMergeNode in="blur"/><feMergeNode in="SourceGraphic"/></feMerge>
    </filter>
  </defs>
  <rect width="920" height="440" fill="url(#nsf-sky)"/>
  <g stroke="#f472b6" stroke-width="1" opacity="0.08">
    <line x1="0" y1="110" x2="920" y2="110"/><line x1="0" y1="220" x2="920" y2="220"/><line x1="0" y1="330" x2="920" y2="330"/>
  </g>
  <text x="460" y="52" text-anchor="middle" fill="#fce7f3" font-family="ui-monospace, monospace" font-size="20" filter="url(#nsf-title)">smart-speaker-server</text>
  <g transform="translate(460,236)">
    <ellipse cx="0" cy="18" rx="200" ry="68" fill="url(#nsf-cloudFill)" opacity="0.9"/>
    <path d="M -182 22
      C -205 22 -222 2 -214 -22
      C -228 -45 -204 -68 -174 -64
      C -162 -92 -124 -108 -78 -100
      C -40 -122 40 -122 78 -100
      C 124 -108 162 -92 174 -64
      C 204 -68 228 -45 214 -22
      C 222 2 205 22 182 22
      C 168 46 128 54 78 50
      C 28 56 -28 56 -78 50
      C -128 54 -168 46 -182 22 Z" fill="rgba(244,114,182,0.06)" stroke="none"/>
    <path d="M -182 22
      C -205 22 -222 2 -214 -22
      C -228 -45 -204 -68 -174 -64
      C -162 -92 -124 -108 -78 -100
      C -40 -122 40 -122 78 -100
      C 124 -108 162 -92 174 -64
      C 204 -68 228 -45 214 -22
      C 222 2 205 22 182 22
      C 168 46 128 54 78 50
      C 28 56 -28 56 -78 50
      C -128 54 -168 46 -182 22 Z" fill="none" stroke="#f9a8d4" stroke-width="2.2" filter="url(#nsf-cloudBloom)" opacity="0.95"/>
    <path d="M -182 22
      C -205 22 -222 2 -214 -22
      C -228 -45 -204 -68 -174 -64
      C -162 -92 -124 -108 -78 -100
      C -40 -122 40 -122 78 -100
      C 124 -108 162 -92 174 -64
      C 204 -68 228 -45 214 -22
      C 222 2 205 22 182 22
      C 168 46 128 54 78 50
      C 28 56 -28 56 -78 50
      C -128 54 -168 46 -182 22 Z" fill="none" stroke="#fbcfe8" stroke-width="1.1" opacity="0.55"/>
    <path d="M -95 -88 Q 0 -108 95 -88" fill="none" stroke="#fda4af" stroke-width="1.2" stroke-linecap="round" opacity="0.45"/>
    <g transform="translate(0,6)">
      <rect x="-62" y="-40" width="124" height="80" rx="10" fill="rgba(15,5,32,0.35)" stroke="#fbcfe8" stroke-width="1.5"/>
      <rect x="-54" y="-32" width="108" height="64" rx="6" fill="none" stroke="#f472b6" stroke-width="0.9" opacity="0.35"/>
      <rect x="-44" y="-26" width="72" height="6" rx="2" fill="url(#nsf-blade)" opacity="0.85"/>
      <rect x="-44" y="-15" width="72" height="6" rx="2" fill="url(#nsf-blade)" opacity="0.9"/>
      <rect x="-44" y="-4" width="72" height="6" rx="2" fill="url(#nsf-blade)" opacity="0.95"/>
      <rect x="-44" y="7" width="72" height="6" rx="2" fill="url(#nsf-blade)" opacity="0.95"/>
      <rect x="-44" y="18" width="72" height="6" rx="2" fill="url(#nsf-blade)" opacity="0.9"/>
      <g>
        <circle cx="-52" cy="-23" r="2.2" fill="#4ade80"/><circle cx="-52" cy="-12" r="2.2" fill="#4ade80"/>
        <circle cx="-52" cy="-1" r="2.2" fill="#fbbf24"/><circle cx="-52" cy="10" r="2.2" fill="#4ade80"/>
        <circle cx="-52" cy="21" r="2.2" fill="#4ade80"/>
      </g>
      <g stroke="#fce7f3" stroke-width="1.1" stroke-linecap="round" opacity="0.5">
        <line x1="38" y1="-24" x2="38" y2="24"/><line x1="46" y1="-24" x2="46" y2="24"/><line x1="54" y1="-24" x2="54" y2="24"/>
      </g>
    </g>
  </g>
</svg>
