<svg xmlns="http://www.w3.org/2000/svg" width="920" height="420" viewBox="0 0 920 420" role="img" aria-labelledby="nar-t nar-d">
  <title id="nar-t">Repository architecture: client, server, Qt app</title>
  <desc id="nar-d">Neon cyber style overview</desc>
  <defs>
    <linearGradient id="nar-sky" x1="0" y1="0" x2="0" y2="1">
      <stop offset="0%" stop-color="#0f0520"/>
      <stop offset="100%" stop-color="#1a0a2e"/>
    </linearGradient>
    <filter id="nar-g1" x="-50%" y="-50%" width="200%" height="200%">
      <feGaussianBlur stdDeviation="4" result="b"/>
      <feMerge><feMergeNode in="b"/><feMergeNode in="SourceGraphic"/></feMerge>
    </filter>
    <filter id="nar-g2" x="-50%" y="-50%" width="200%" height="200%">
      <feGaussianBlur stdDeviation="8" result="b2"/>
      <feMerge><feMergeNode in="b2"/><feMergeNode in="SourceGraphic"/></feMerge>
    </filter>
  </defs>
  <rect width="920" height="420" fill="url(#nar-sky)"/>
  <g stroke="#22d3ee" stroke-width="1" opacity="0.12">
    <line x1="0" y1="80" x2="920" y2="80"/><line x1="0" y1="160" x2="920" y2="160"/>
    <line x1="0" y1="240" x2="920" y2="240"/><line x1="0" y1="320" x2="920" y2="320"/>
  </g>
  <text x="460" y="44" text-anchor="middle" fill="#e879f9" font-family="ui-monospace, monospace" font-size="16" filter="url(#nar-g1)">ORANGEPI5+ / CLIENT / SERVER / QT APP</text>
  <g transform="translate(88,128)" filter="url(#nar-g2)">
    <rect width="200" height="168" rx="10" fill="none" stroke="#22d3ee" stroke-width="2"/>
    <circle cx="100" cy="88" r="34" fill="none" stroke="#22d3ee" stroke-width="1.5"/>
    <text x="100" y="198" text-anchor="middle" fill="#67e8f9" font-family="monospace" font-size="12">CLIENT</text>
    <text x="100" y="214" text-anchor="middle" fill="#22d3ee" font-family="monospace" font-size="9" opacity="0.85">smart-speaker-client</text>
  </g>
  <g transform="translate(360,118)" filter="url(#nar-g2)">
    <rect width="200" height="188" rx="8" fill="none" stroke="#f472b6" stroke-width="2"/>
    <line x1="24" y1="52" x2="176" y2="52" stroke="#f472b6" stroke-width="1.2"/>
    <line x1="24" y1="82" x2="176" y2="82" stroke="#f472b6" stroke-width="1.2"/>
    <line x1="24" y1="112" x2="176" y2="112" stroke="#f472b6" stroke-width="1.2"/>
    <text x="100" y="168" text-anchor="middle" fill="#f9a8d4" font-family="monospace" font-size="12">SERVER</text>
    <text x="100" y="184" text-anchor="middle" fill="#f472b6" font-family="monospace" font-size="9" opacity="0.9">smart-speaker-server</text>
  </g>
  <g transform="translate(632,138)" filter="url(#nar-g2)">
    <rect width="200" height="148" rx="16" fill="none" stroke="#a78bfa" stroke-width="2"/>
    <text x="100" y="128" text-anchor="middle" fill="#c4b5fd" font-family="monospace" font-size="12">QT APP</text>
    <text x="100" y="144" text-anchor="middle" fill="#a78bfa" font-family="monospace" font-size="9" opacity="0.9">smart-speaker-qtApp</text>
  </g>
  <g stroke="#22d3ee" stroke-width="2" fill="none" filter="url(#nar-g1)">
    <path d="M288 212 H360"/>
    <path d="M560 212 H632"/>
  </g>
  <path d="M732 138 C 860 70 900 360 188 360 C 70 360 70 230 188 212" fill="none" stroke="#f472b6" stroke-width="1.5" stroke-dasharray="10 7" opacity="0.85" filter="url(#nar-g1)"/>
  <text x="460" y="402" text-anchor="middle" fill="#6b21a8" font-family="monospace" font-size="10" opacity="0.95">smart-speaker-orangepi5plus</text>
</svg>
