<svg xmlns="http://www.w3.org/2000/svg" width="920" height="420" viewBox="0 0 920 420" role="img" aria-labelledby="t d">
  <title id="t">Style preview: neon cyber</title>
  <desc id="d">Dark violet background, cyan and magenta glow</desc>
  <defs>
    <linearGradient id="sky" x1="0" y1="0" x2="0" y2="1">
      <stop offset="0%" stop-color="#0f0520"/>
      <stop offset="100%" stop-color="#1a0a2e"/>
    </linearGradient>
    <filter id="n1" x="-50%" y="-50%" width="200%" height="200%">
      <feGaussianBlur stdDeviation="4" result="blur"/>
      <feMerge><feMergeNode in="blur"/><feMergeNode in="SourceGraphic"/></feMerge>
    </filter>
    <filter id="n2" x="-50%" y="-50%" width="200%" height="200%">
      <feGaussianBlur stdDeviation="8" result="b2"/>
      <feMerge><feMergeNode in="b2"/><feMergeNode in="SourceGraphic"/></feMerge>
    </filter>
  </defs>
  <rect width="920" height="420" fill="url(#sky)"/>
  <g stroke="#22d3ee" stroke-width="1" opacity="0.15">
    <line x1="0" y1="80" x2="920" y2="80"/><line x1="0" y1="160" x2="920" y2="160"/>
    <line x1="0" y1="240" x2="920" y2="240"/><line x1="0" y1="320" x2="920" y2="320"/>
  </g>
  <text x="460" y="48" text-anchor="middle" fill="#e879f9" font-family="ui-monospace, monospace" font-size="15" filter="url(#n1)">NEON / CLIENT / SERVER / APP</text>
  <g transform="translate(95,135)" filter="url(#n2)">
    <rect width="190" height="150" rx="10" fill="none" stroke="#22d3ee" stroke-width="2"/>
    <circle cx="95" cy="85" r="32" fill="none" stroke="#22d3ee" stroke-width="1.5"/>
    <text x="95" y="178" text-anchor="middle" fill="#67e8f9" font-family="monospace" font-size="13">CLIENT</text>
  </g>
  <g transform="translate(365,125)" filter="url(#n2)">
    <rect width="190" height="170" rx="8" fill="none" stroke="#f472b6" stroke-width="2"/>
    <line x1="20" y1="50" x2="170" y2="50" stroke="#f472b6" stroke-width="1.2"/>
    <line x1="20" y1="80" x2="170" y2="80" stroke="#f472b6" stroke-width="1.2"/>
    <text x="95" y="155" text-anchor="middle" fill="#f9a8d4" font-family="monospace" font-size="13">SERVER</text>
  </g>
  <g transform="translate(635,145)" filter="url(#n2)">
    <rect width="190" height="130" rx="16" fill="none" stroke="#a78bfa" stroke-width="2"/>
    <text x="95" y="118" text-anchor="middle" fill="#c4b5fd" font-family="monospace" font-size="13">QT APP</text>
  </g>
  <g stroke="#22d3ee" stroke-width="2" fill="none" filter="url(#n1)">
    <path d="M285 207 H365"/>
    <path d="M555 207 H635"/>
  </g>
  <path d="M730 145 C 850 60 900 360 190 360 C 80 360 80 240 190 207" fill="none" stroke="#f472b6" stroke-width="1.5" stroke-dasharray="12 8" opacity="0.8" filter="url(#n1)"/>
  <text x="460" y="400" text-anchor="middle" fill="#c4b5fd" font-family="monospace" font-size="11" opacity="0.9">Neon cyber</text>
</svg>
