<svg xmlns="http://www.w3.org/2000/svg" width="920" height="420" viewBox="0 0 920 420" role="img" aria-labelledby="t d">
  <title id="t">Style preview: engineering blueprint</title>
  <desc id="d">Dark blue grid, technical lines</desc>
  <defs>
    <pattern id="grid" width="24" height="24" patternUnits="userSpaceOnUse">
      <path d="M24 0H0V24" fill="none" stroke="#1e4976" stroke-width="0.5"/>
    </pattern>
  </defs>
  <rect width="920" height="420" fill="#0c2340"/>
  <rect width="920" height="420" fill="url(#grid)" opacity="0.6"/>
  <text x="460" y="42" text-anchor="middle" fill="#7dd3fc" font-family="ui-monospace, monospace" font-size="13" letter-spacing="0.2em">BLUEPRINT</text>
  <g fill="none" stroke="#bae6fd" stroke-width="1.2" opacity="0.95">
    <rect x="88" y="128" width="184" height="148" stroke-dasharray="4 3"/>
    <circle cx="180" cy="202" r="38" stroke-dasharray="6 4"/>
    <line x1="180" y1="164" x2="180" y2="240"/>
    <line x1="142" y1="202" x2="218" y2="202"/>
  </g>
  <text x="180" y="298" text-anchor="middle" fill="#93c5fd" font-family="monospace" font-size="12">CLIENT</text>
  <g fill="none" stroke="#bae6fd" stroke-width="1.2">
    <rect x="368" y="118" width="184" height="168"/>
    <line x1="388" y1="152" x2="532" y2="152"/><line x1="388" y1="182" x2="532" y2="182"/><line x1="388" y1="212" x2="532" y2="212"/>
  </g>
  <text x="460" y="308" text-anchor="middle" fill="#93c5fd" font-family="monospace" font-size="12">SERVER</text>
  <g fill="none" stroke="#bae6fd" stroke-width="1.2">
    <rect x="648" y="138" width="184" height="128" rx="14"/>
    <rect x="668" y="162" width="144" height="76" rx="2"/>
  </g>
  <text x="740" y="288" text-anchor="middle" fill="#93c5fd" font-family="monospace" font-size="12">QT_APP</text>
  <g stroke="#38bdf8" stroke-width="1.5" fill="none">
    <line x1="272" y1="202" x2="368" y2="202"/><line x1="552" y1="202" x2="648" y2="202"/>
    <path d="M740 138 L740 90 L120 90 L120 128" stroke-dasharray="5 4" opacity="0.75"/>
  </g>
  <text x="460" y="392" text-anchor="middle" fill="#38bdf8" font-family="monospace" font-size="11">Blueprint</text>
</svg>
