<svg xmlns="http://www.w3.org/2000/svg" width="920" height="420" viewBox="0 0 920 420" role="img" aria-labelledby="t d">
  <title id="t">Style preview: line art with gradient accent</title>
  <desc id="d">Minimal outlines with cyan to violet gradient links</desc>
  <defs>
    <linearGradient id="lg-accent" x1="0%" y1="0%" x2="100%" y2="0%">
      <stop offset="0%" stop-color="#0ea5e9"/>
      <stop offset="100%" stop-color="#8b5cf6"/>
    </linearGradient>
  </defs>
  <rect width="920" height="420" fill="#fafafa"/>
  <text x="460" y="46" text-anchor="middle" fill="#171717" font-family="ui-monospace, monospace" font-size="14" font-weight="600">line + gradient</text>
  <g fill="none" stroke="#404040" stroke-width="1.5" stroke-linejoin="round">
    <rect x="90" y="130" width="180" height="140" rx="8"/>
    <circle cx="180" cy="200" r="36"/>
    <path d="M168 200h24M180 188v24" stroke="#525252"/>
  </g>
  <text x="180" y="295" text-anchor="middle" fill="#525252" font-family="sans-serif" font-size="13">Client</text>
  <g fill="none" stroke="#404040" stroke-width="1.5">
    <rect x="370" y="120" width="180" height="160" rx="6"/>
    <line x1="390" y1="155" x2="530" y2="155"/>
    <line x1="390" y1="185" x2="530" y2="185"/>
    <line x1="390" y1="215" x2="530" y2="215"/>
  </g>
  <text x="460" y="305" text-anchor="middle" fill="#525252" font-family="sans-serif" font-size="13">Server</text>
  <g fill="none" stroke="#404040" stroke-width="1.5">
    <rect x="650" y="140" width="180" height="120" rx="16"/>
    <rect x="670" y="165" width="140" height="70" rx="4"/>
  </g>
  <text x="740" y="285" text-anchor="middle" fill="#525252" font-family="sans-serif" font-size="13">Qt App</text>
  <g stroke="url(#lg-accent)" stroke-width="2.5" fill="none" stroke-linecap="round">
    <path d="M270 200 H370"/>
    <path d="M550 200 H650"/>
    <path d="M740 140 C 840 80 880 340 180 340 C 100 340 100 220 180 200" stroke-dasharray="10 7" opacity="0.65"/>
  </g>
  <circle cx="180" cy="200" r="5" fill="url(#lg-accent)"/>
  <circle cx="460" cy="200" r="5" fill="url(#lg-accent)"/>
  <circle cx="740" cy="200" r="5" fill="url(#lg-accent)"/>
  <text x="460" y="388" text-anchor="middle" fill="#a3a3a3" font-family="sans-serif" font-size="11">Line art + gradient</text>
</svg>
