<svg xmlns="http://www.w3.org/2000/svg" width="920" height="420" viewBox="0 0 920 420" role="img" aria-labelledby="t d">
  <title id="t">Style preview: isometric flat</title>
  <desc id="d">Light background, isometric blocks for client server app</desc>
  <defs>
    <linearGradient id="bg" x1="0" y1="0" x2="1" y2="1">
      <stop offset="0%" stop-color="#f4f6f8"/>
      <stop offset="100%" stop-color="#e2e8f0"/>
    </linearGradient>
    <filter id="sh" x="-20%" y="-20%" width="140%" height="140%">
      <feDropShadow dx="0" dy="4" stdDeviation="6" flood-color="#64748b" flood-opacity="0.2"/>
    </filter>
  </defs>
  <rect width="920" height="420" fill="url(#bg)"/>
  <text x="460" y="44" text-anchor="middle" fill="#334155" font-family="ui-sans-serif, system-ui, sans-serif" font-size="15" font-weight="700">Architecture - Isometric flat</text>
  <g transform="translate(100,200)" filter="url(#sh)">
    <path d="M0 40 L80 0 L160 40 L80 80 Z" fill="#f97316"/>
    <path d="M0 40 L0 100 L80 140 L80 80 Z" fill="#ea580c"/>
    <path d="M80 80 L160 40 L160 100 L80 140 Z" fill="#c2410c"/>
    <text x="80" y="95" text-anchor="middle" fill="white" font-family="sans-serif" font-size="12" font-weight="600">Client</text>
  </g>
  <g transform="translate(380,175)" filter="url(#sh)">
    <path d="M0 50 L90 10 L180 50 L90 90 Z" fill="#6366f1"/>
    <path d="M0 50 L0 120 L90 160 L90 90 Z" fill="#4f46e5"/>
    <path d="M90 90 L180 50 L180 120 L90 160 Z" fill="#4338ca"/>
    <rect x="35" y="55" width="110" height="14" fill="white" opacity="0.25" rx="2"/>
    <rect x="35" y="78" width="110" height="14" fill="white" opacity="0.2" rx="2"/>
    <text x="90" y="118" text-anchor="middle" fill="white" font-family="sans-serif" font-size="12" font-weight="600">Server</text>
  </g>
  <g transform="translate(660,195)" filter="url(#sh)">
    <path d="M0 35 L70 0 L140 35 L70 70 Z" fill="#14b8a6"/>
    <path d="M0 35 L0 85 L70 120 L70 70 Z" fill="#0d9488"/>
    <path d="M70 70 L140 35 L140 85 L70 120 Z" fill="#0f766e"/>
    <rect x="40" y="45" width="60" height="40" rx="4" fill="white" opacity="0.35"/>
    <text x="70" y="108" text-anchor="middle" fill="white" font-family="sans-serif" font-size="11" font-weight="600">Qt App</text>
  </g>
  <g stroke="#94a3b8" stroke-width="3" fill="none" stroke-linecap="round">
    <path d="M270 248 Q 320 200 400 248"/>
    <path d="M570 248 Q 620 200 700 248"/>
    <path d="M730 230 Q 820 120 200 120 Q 120 160 180 230" stroke-dasharray="8 6" opacity="0.7"/>
  </g>
  <text x="460" y="390" text-anchor="middle" fill="#64748b" font-family="sans-serif" font-size="11">Isometric flat</text>
</svg>
