<svg xmlns="http://www.w3.org/2000/svg" width="920" height="420" viewBox="0 0 920 420" role="img" aria-labelledby="t d">
  <title id="t">Style preview: paper and ink</title>
  <desc id="d">Warm paper tone with hand-drawn feel</desc>
  <defs>
    <filter id="ink" x="-5%" y="-5%" width="110%" height="110%">
      <feTurbulence type="fractalNoise" baseFrequency="0.9" numOctaves="3" result="n"/>
      <feDisplacementMap in="SourceGraphic" in2="n" scale="0.6" xChannelSelector="R" yChannelSelector="G"/>
    </filter>
    <radialGradient id="paper" cx="30%" cy="20%" r="80%">
      <stop offset="0%" stop-color="#faf6ef"/>
      <stop offset="100%" stop-color="#ebe4d6"/>
    </radialGradient>
  </defs>
  <rect width="920" height="420" fill="url(#paper)"/>
  <rect x="32" y="32" width="856" height="356" fill="none" stroke="#3d2c1f" stroke-width="0.8" opacity="0.25" rx="2"/>
  <text x="460" y="52" text-anchor="middle" fill="#3d2c1f" font-family="Georgia, serif" font-size="16" font-style="italic" opacity="0.85">sketch / paper ink</text>
  <g fill="none" stroke="#1c1917" stroke-width="2" stroke-linecap="round" stroke-linejoin="round" filter="url(#ink)">
    <rect x="92" y="132" width="176" height="136" rx="10"/>
    <circle cx="180" cy="200" r="34"/>
  </g>
  <text x="180" y="296" text-anchor="middle" fill="#44403c" font-family="Georgia, serif" font-size="14">Client</text>
  <g fill="none" stroke="#1c1917" stroke-width="2" filter="url(#ink)">
    <rect x="372" y="122" width="176" height="156" rx="6"/>
    <path d="M392 158h136M392 188h136M392 218h100"/>
  </g>
  <text x="460" y="302" text-anchor="middle" fill="#44403c" font-family="Georgia, serif" font-size="14">Server</text>
  <g fill="none" stroke="#1c1917" stroke-width="2" filter="url(#ink)">
    <rect x="652" y="142" width="176" height="116" rx="18"/>
    <rect x="672" y="168" width="136" height="64" rx="3"/>
  </g>
  <text x="740" y="282" text-anchor="middle" fill="#44403c" font-family="Georgia, serif" font-size="14">Qt App</text>
  <g stroke="#57534e" stroke-width="1.8" fill="none" stroke-linecap="round" opacity="0.85" filter="url(#ink)">
    <path d="M268 200c20-8 40-8 60 0"/>
    <path d="M548 200c20-8 40-8 60 0"/>
    <path d="M828 200c40-80-200-100-320-20-120 30-200 80-220 120"/>
  </g>
  <text x="460" y="388" text-anchor="middle" fill="#78716c" font-family="Georgia, serif" font-size="11">Paper and ink</text>
</svg>
